<mxfile host="app.diagrams.net" agent="Mozilla/5.0 (Macintosh; Intel Mac OS X 10_15_7) AppleWebKit/537.36 (KHTML, like Gecko) Chrome/130.0.0.0 Safari/537.36" version="24.8.4">
  <diagram name="Page-1" id="RIzxYW6cf2a8oOUlsFMP">
    <mxGraphModel dx="1360" dy="773" grid="1" gridSize="10" guides="1" tooltips="1" connect="1" arrows="1" fold="1" page="1" pageScale="1" pageWidth="850" pageHeight="1100" math="0" shadow="0">
      <root>
        <mxCell id="0" />
        <mxCell id="1" parent="0" />
        <mxCell id="ZYtkxQRhfNcD9-TJCzsk-1" value="&lt;font style=&quot;font-size: 18px;&quot;&gt;&lt;b style=&quot;background-color: rgb(255, 239, 15);&quot;&gt;DB&lt;/b&gt;&lt;/font&gt;" style="text;html=1;align=center;verticalAlign=middle;whiteSpace=wrap;rounded=0;" vertex="1" parent="1">
          <mxGeometry x="20" y="10" width="60" height="30" as="geometry" />
        </mxCell>
        <mxCell id="ZYtkxQRhfNcD9-TJCzsk-2" value="Horizontal &lt;br&gt;&lt;div&gt;Center of Excellence CoE&lt;/div&gt;" style="rounded=1;whiteSpace=wrap;html=1;" vertex="1" parent="1">
          <mxGeometry x="330" y="30" width="190" height="60" as="geometry" />
        </mxCell>
        <mxCell id="ZYtkxQRhfNcD9-TJCzsk-10" style="edgeStyle=orthogonalEdgeStyle;rounded=0;orthogonalLoop=1;jettySize=auto;html=1;exitX=0.5;exitY=1;exitDx=0;exitDy=0;entryX=1;entryY=0;entryDx=0;entryDy=0;" edge="1" parent="1" source="ZYtkxQRhfNcD9-TJCzsk-3" target="ZYtkxQRhfNcD9-TJCzsk-4">
          <mxGeometry relative="1" as="geometry" />
        </mxCell>
        <mxCell id="ZYtkxQRhfNcD9-TJCzsk-11" style="edgeStyle=orthogonalEdgeStyle;rounded=0;orthogonalLoop=1;jettySize=auto;html=1;exitX=0.5;exitY=1;exitDx=0;exitDy=0;entryX=0.5;entryY=0;entryDx=0;entryDy=0;" edge="1" parent="1" source="ZYtkxQRhfNcD9-TJCzsk-3" target="ZYtkxQRhfNcD9-TJCzsk-5">
          <mxGeometry relative="1" as="geometry" />
        </mxCell>
        <mxCell id="ZYtkxQRhfNcD9-TJCzsk-12" style="edgeStyle=orthogonalEdgeStyle;rounded=0;orthogonalLoop=1;jettySize=auto;html=1;exitX=0.5;exitY=1;exitDx=0;exitDy=0;entryX=0.5;entryY=0;entryDx=0;entryDy=0;" edge="1" parent="1" source="ZYtkxQRhfNcD9-TJCzsk-3" target="ZYtkxQRhfNcD9-TJCzsk-6">
          <mxGeometry relative="1" as="geometry" />
        </mxCell>
        <mxCell id="ZYtkxQRhfNcD9-TJCzsk-13" style="edgeStyle=orthogonalEdgeStyle;rounded=0;orthogonalLoop=1;jettySize=auto;html=1;exitX=0.5;exitY=1;exitDx=0;exitDy=0;entryX=0.5;entryY=0;entryDx=0;entryDy=0;" edge="1" parent="1" source="ZYtkxQRhfNcD9-TJCzsk-3" target="ZYtkxQRhfNcD9-TJCzsk-7">
          <mxGeometry relative="1" as="geometry" />
        </mxCell>
        <mxCell id="ZYtkxQRhfNcD9-TJCzsk-3" value="Centralization of Prisma Secrets" style="rounded=1;whiteSpace=wrap;html=1;" vertex="1" parent="1">
          <mxGeometry x="80" y="120" width="120" height="60" as="geometry" />
        </mxCell>
        <mxCell id="ZYtkxQRhfNcD9-TJCzsk-4" value="App1" style="ellipse;whiteSpace=wrap;html=1;" vertex="1" parent="1">
          <mxGeometry x="30" y="220" width="40" height="30" as="geometry" />
        </mxCell>
        <mxCell id="ZYtkxQRhfNcD9-TJCzsk-5" value="App2" style="ellipse;whiteSpace=wrap;html=1;" vertex="1" parent="1">
          <mxGeometry x="90" y="220" width="40" height="30" as="geometry" />
        </mxCell>
        <mxCell id="ZYtkxQRhfNcD9-TJCzsk-6" value="App3" style="ellipse;whiteSpace=wrap;html=1;" vertex="1" parent="1">
          <mxGeometry x="140" y="220" width="40" height="30" as="geometry" />
        </mxCell>
        <mxCell id="ZYtkxQRhfNcD9-TJCzsk-7" value="App n" style="ellipse;whiteSpace=wrap;html=1;" vertex="1" parent="1">
          <mxGeometry x="190" y="220" width="40" height="30" as="geometry" />
        </mxCell>
        <mxCell id="ZYtkxQRhfNcD9-TJCzsk-14" value="1. IAM role binding for custom SAs&lt;br&gt;2. &lt;b&gt;Issue&lt;/b&gt; - GCP IAM quota 1500 bindings per project&lt;br&gt;&amp;nbsp; &amp;nbsp; &lt;b&gt;Resolution&lt;/b&gt; - Create Google group and add terraform resource block to add group membership. Bind IAM role to Group" style="text;html=1;align=left;verticalAlign=middle;whiteSpace=wrap;rounded=0;fillColor=#ffe6cc;strokeColor=#d79b00;" vertex="1" parent="1">
          <mxGeometry x="40" y="280" width="240" height="90" as="geometry" />
        </mxCell>
        <mxCell id="ZYtkxQRhfNcD9-TJCzsk-16" value="Multiple Teams collaboration&lt;br&gt;Short lived projects and assignments&lt;br&gt;PoC and experiments" style="text;html=1;align=left;verticalAlign=middle;whiteSpace=wrap;rounded=0;fillColor=#ffe6cc;strokeColor=#d79b00;" vertex="1" parent="1">
          <mxGeometry x="520" y="35" width="200" height="50" as="geometry" />
        </mxCell>
      </root>
    </mxGraphModel>
  </diagram>
</mxfile>
